<svg width="40" height="33" viewBox="0 0 40 40" fill="none" xmlns="http://www.w3.org/2000/svg">
    <g opacity="0.2">
        <path fill-rule="evenodd" clip-rule="evenodd" d="M35 5.4166V32.5031C35 32.5031 20 31.5344 20 34.9999C20 34.9999 20 16.5922 20 9.36506C20 3.45817 35 5.4166 35 5.4166Z" fill="#0165E1"/>
        <path fill-rule="evenodd" clip-rule="evenodd" d="M5 5.4166V32.5031L6.24943 32.4287L7.44455 32.3703L8.58533 32.328L9.6718 32.3018C9.84835 32.2987 10.0226 32.2964 10.1947 32.2947L11.1996 32.2925L12.1503 32.3064L13.0466 32.3364L13.8886 32.3824C14.1603 32.4005 14.4228 32.4212 14.6763 32.4445L15.4097 32.5227C18.3522 32.8817 19.88 33.659 19.9932 34.8545L20 34.9435L20 9.36506C20 6.15042 16.6681 4.68291 10.0042 4.96252L8.97959 5.01756C8.80466 5.02892 8.62765 5.04137 8.44856 5.05491L7.34902 5.14927C6.97418 5.18508 6.591 5.22527 6.1995 5.26983L5 5.4166Z" fill="#0165E1"/>
    </g>
    <path fill-rule="evenodd" clip-rule="evenodd" d="M35 5.41667V32.5032C35 32.5032 20 31.5345 20 35C20 35 20 16.5923 20 9.36514C20 3.45824 35 5.41667 35 5.41667Z" stroke="#0165E1" stroke-width="3" stroke-linecap="round" stroke-linejoin="round"/>
    <path fill-rule="evenodd" clip-rule="evenodd" d="M5 5.41667V32.5032L6.24943 32.4287V32.4287L7.44454 32.3704V32.3704L8.58533 32.3281V32.3281L9.6718 32.3019C9.84835 32.2988 10.0226 32.2965 10.1947 32.2948L11.1996 32.2926V32.2926L12.1503 32.3065V32.3065L13.0466 32.3365V32.3365L13.8886 32.3825C14.1603 32.4005 14.4228 32.4212 14.6763 32.4446L15.4097 32.5228C18.3522 32.8818 19.88 33.6591 19.9932 34.8545L20 34.9435V34.9435V9.36514V9.36514C20 6.1505 16.6681 4.68298 10.0042 4.96259L8.97959 5.01764C8.80466 5.02899 8.62765 5.04144 8.44856 5.05499L7.34902 5.14934C6.97418 5.18516 6.591 5.22535 6.1995 5.2699L5 5.41667V5.41667Z" stroke="#0165E1" stroke-width="3" stroke-linecap="round" stroke-linejoin="round"/>
</svg>
