<svg width="40" height="33" viewBox="0 0 40 40" fill="none" xmlns="http://www.w3.org/2000/svg">
    <path fill-rule="evenodd" clip-rule="evenodd" d="M35 5.41672V32.5032C35 32.5032 20 31.5345 20 35C20 35 20 16.5924 20 9.36518C20 3.45829 35 5.41672 35 5.41672Z" stroke="#323232" stroke-width="3" stroke-linecap="round" stroke-linejoin="round"/>
    <path fill-rule="evenodd" clip-rule="evenodd" d="M5 5.41672V32.5032L6.24943 32.4288V32.4288L7.44454 32.3704V32.3704L8.58533 32.3281V32.3281L9.6718 32.3019C9.84835 32.2989 10.0226 32.2965 10.1947 32.2948L11.1996 32.2927V32.2927L12.1503 32.3066V32.3066L13.0466 32.3365V32.3365L13.8886 32.3826C14.1603 32.4006 14.4228 32.4213 14.6763 32.4447L15.4097 32.5228C18.3522 32.8819 19.88 33.6591 19.9932 34.8546L20 34.9436V34.9436V9.36518V9.36518C20 6.15055 16.6681 4.68303 10.0042 4.96264L8.97959 5.01768C8.80466 5.02904 8.62765 5.04149 8.44856 5.05503L7.34902 5.14939C6.97418 5.18521 6.591 5.22539 6.1995 5.26995L5 5.41672V5.41672Z" stroke="#323232" stroke-width="3" stroke-linecap="round" stroke-linejoin="round"/>
</svg>
