<svg width="34" height="33" viewBox="0 0 34 24" fill="none" xmlns="http://www.w3.org/2000/svg">
    <path fill-rule="evenodd" clip-rule="evenodd" d="M11.9997 12C15.2163 12 17.833 9.38333 17.833 6.16666C17.833 2.95 15.2163 0.333328 11.9997 0.333328C8.78301 0.333328 6.16634 2.95 6.16634 6.16666C6.16634 9.38333 8.78301 12 11.9997 12ZM11.9997 3.66666C13.383 3.66666 14.4997 4.78333 14.4997 6.16666C14.4997 7.54999 13.383 8.66666 11.9997 8.66666C10.6163 8.66666 9.49967 7.54999 9.49967 6.16666C9.49967 4.78333 10.6163 3.66666 11.9997 3.66666ZM4.94967 20.3333H12.083C12.033 20.6 11.9997 20.8833 11.9997 21.1667V23.6667H0.333008V21.1667C0.333008 17.2833 8.09968 15.3333 11.9997 15.3333C12.933 15.3333 14.083 15.45 15.2997 15.6667C14.1163 16.4667 13.133 17.4667 12.5663 18.6833C12.4747 18.6833 12.3789 18.6792 12.2831 18.675L12.283 18.675L12.2829 18.675C12.1871 18.6708 12.0913 18.6667 11.9997 18.6667C9.44967 18.6667 6.59967 19.5 4.94967 20.3333ZM24.4997 16.1667C21.433 16.1667 15.333 17.85 15.333 21.1667V23.6667H33.6663V21.1667C33.6663 17.85 27.5663 16.1667 24.4997 16.1667ZM28.6663 9.5C28.6663 11.0667 27.783 12.4167 26.5163 13.1333C25.9163 13.4667 25.233 13.6667 24.4997 13.6667C23.7663 13.6667 23.083 13.4667 22.483 13.1333C21.2163 12.4167 20.333 11.0667 20.333 9.5C20.333 7.2 22.1997 5.33333 24.4997 5.33333C26.7997 5.33333 28.6663 7.2 28.6663 9.5Z" fill="#323232"/>
</svg>
