<svg width="30" height="30" viewBox="0 0 30 30" fill="none" xmlns="http://www.w3.org/2000/svg">
    <g clip-path="url(#clip0_1776_9044)">
        <path d="M17.3251 -0.00136906C17.3134 0.00331694 17.2993 0.0103489 17.2876 0.0173809L0.487578 3.20488C0.201642 3.25879 -0.00460774 3.51191 7.82564e-05 3.80488V26.1924C-0.00460774 26.4854 0.201642 26.7385 0.487578 26.7924L17.2876 29.9799C17.461 30.0127 17.6415 29.9682 17.7798 29.8557C17.9157 29.7432 17.9977 29.5768 18.0001 29.3986V26.3986H28.2001C28.8563 26.3986 29.4001 25.8549 29.4001 25.1986V4.79863C29.4001 4.14238 28.8563 3.59863 28.2001 3.59863H18.0001V0.598631C18.0024 0.425195 17.9274 0.261131 17.7985 0.146285C17.6696 0.031439 17.4962 -0.0224651 17.3251 -0.00136906ZM16.8001 1.31113V3.91738C16.7204 4.08379 16.7204 4.27598 16.8001 4.44238V25.6861C16.7837 25.7658 16.7837 25.8502 16.8001 25.9299V28.6861L1.20008 25.7049V4.29238L16.8001 1.31113ZM18.0001 4.79863H28.2001V25.1986H18.0001V22.1986L18.0001 20.9986L18.0001 17.3986L18.0001 16.1986L18.0001 13.1986L18 12L18.0001 11.9986V8.99863L18.0001 7.79863L18.0001 4.79863ZM4.01258 9.41113L7.29383 15.0174L3.71258 20.6236H6.71258L8.66258 17.0049C8.79851 16.6557 8.88758 16.3885 8.92508 16.2174H8.94383C9.02117 16.583 9.09617 16.8314 9.16883 16.9674L11.1188 20.6236H14.1001L10.6501 14.9611L14.0063 9.41113H11.1938L9.41258 12.7299C9.24148 13.1635 9.11961 13.5057 9.05633 13.7236H9.03758C8.93914 13.358 8.82664 13.0322 8.70008 12.7674L7.08758 9.41113H4.01258Z" fill="#323232"/>
    </g>
    <defs>
        <clipPath id="clip0_1776_9044">
            <rect width="30" height="30" fill="white"/>
        </clipPath>
    </defs>
</svg>
