<svg width="40" height="40" viewBox="0 0 40 40" fill="none" xmlns="http://www.w3.org/2000/svg">
    <circle opacity="0.2" cx="15" cy="14" r="3" fill="#0165E1"/>
    <path fill-rule="evenodd" clip-rule="evenodd" d="M14.9997 20.0002C18.2163 20.0002 20.833 17.3835 20.833 14.1668C20.833 10.9502 18.2163 8.3335 14.9997 8.3335C11.783 8.3335 9.16634 10.9502 9.16634 14.1668C9.16634 17.3835 11.783 20.0002 14.9997 20.0002ZM14.9997 11.6668C16.383 11.6668 17.4997 12.7835 17.4997 14.1668C17.4997 15.5502 16.383 16.6668 14.9997 16.6668C13.6163 16.6668 12.4997 15.5502 12.4997 14.1668C12.4997 12.7835 13.6163 11.6668 14.9997 11.6668ZM7.94967 28.3335H15.083C15.033 28.6002 14.9997 28.8835 14.9997 29.1668V31.6668H3.33301V29.1668C3.33301 25.2835 11.0997 23.3335 14.9997 23.3335C15.933 23.3335 17.083 23.4502 18.2997 23.6668C17.1163 24.4668 16.133 25.4668 15.5663 26.6835C15.4747 26.6835 15.3789 26.6793 15.2831 26.6752L15.283 26.6752L15.2829 26.6752C15.1871 26.671 15.0913 26.6668 14.9997 26.6668C12.4497 26.6668 9.59967 27.5002 7.94967 28.3335ZM27.4997 24.1668C24.433 24.1668 18.333 25.8502 18.333 29.1668V31.6668H36.6663V29.1668C36.6663 25.8502 30.5663 24.1668 27.4997 24.1668ZM31.6663 17.5002C31.6663 19.0668 30.783 20.4168 29.5163 21.1335C28.9163 21.4668 28.233 21.6668 27.4997 21.6668C26.7663 21.6668 26.083 21.4668 25.483 21.1335C24.2163 20.4168 23.333 19.0668 23.333 17.5002C23.333 15.2002 25.1997 13.3335 27.4997 13.3335C29.7997 13.3335 31.6663 15.2002 31.6663 17.5002Z" fill="#0165E1"/>
</svg>
