<svg width="47" height="33" viewBox="0 0 47 31" fill="none" xmlns="http://www.w3.org/2000/svg">
    <circle cx="8" cy="17" r="2.25" stroke="#323232" stroke-width="1.5"/>
    <circle cx="16" cy="17" r="2.25" stroke="#323232" stroke-width="1.5"/>
    <circle cx="24" cy="17" r="2.25" stroke="#323232" stroke-width="1.5"/>
    <circle cx="8" cy="24" r="2.25" stroke="#323232" stroke-width="1.5"/>
    <circle cx="16" cy="24" r="2.25" stroke="#323232" stroke-width="1.5"/>
    <circle cx="24" cy="24" r="2.25" stroke="#323232" stroke-width="1.5"/>
    <mask id="path-7-inside-1_0_1" fill="white">
        <rect x="32.3027" width="32" height="6" rx="1" transform="rotate(62.0943 32.3027 0)"/>
    </mask>
    <rect x="32.3027" width="32" height="6" rx="1" transform="rotate(62.0943 32.3027 0)" fill="#323232" stroke="#323232" stroke-width="6" mask="url(#path-7-inside-1_0_1)"/>
    <path d="M35.5264 3.95044C36.0145 3.69196 36.6197 3.87808 36.8782 4.36614L38.7502 7.90102C39.0087 8.38908 38.8226 8.99428 38.3345 9.25276L37.4508 9.72077L34.6427 4.41846L35.5264 3.95044Z" fill="#323232"/>
    <path d="M39.2706 11.0198C39.7586 10.7613 40.3638 10.9474 40.6223 11.4355L42.4944 14.9704C42.7529 15.4584 42.5667 16.0636 42.0787 16.3221L41.195 16.7901L38.3869 11.4878L39.2706 11.0198Z" fill="#323232"/>
    <path d="M43.0137 18.0896C43.5018 17.8311 44.107 18.0172 44.3655 18.5053L46.2375 22.0402C46.496 22.5282 46.3099 23.1334 45.8218 23.3919L44.9381 23.8599L42.13 18.5576L43.0137 18.0896Z" fill="#323232"/>
    <path fill-rule="evenodd" clip-rule="evenodd" d="M4 13H3V14V27V28H4H28H29V27V14V13H28H4ZM0 14C0 11.7909 1.79086 10 4 10H28C30.2091 10 32 11.7909 32 14V27C32 29.2091 30.2091 31 28 31H4C1.79086 31 0 29.2091 0 27V14Z" fill="#323232"/>
</svg>
