<svg width="40" height="40" viewBox="0 0 40 40" fill="none" xmlns="http://www.w3.org/2000/svg">
    <path opacity="0.2" d="M6 6H26V19H8.5L6.5 20.5L6 19V6Z" fill="#0165E1"/>
    <path fill-rule="evenodd" clip-rule="evenodd" d="M26.6663 3.3335H4.99967C4.08301 3.3335 3.33301 4.0835 3.33301 5.00016V28.3335L9.99967 21.6668H26.6663C27.583 21.6668 28.333 20.9168 28.333 20.0002V5.00016C28.333 4.0835 27.583 3.3335 26.6663 3.3335ZM24.9997 6.66683V18.3335H8.61634L6.66634 20.2835V6.66683H24.9997ZM31.6663 10.0002H34.9997C35.9163 10.0002 36.6663 10.7502 36.6663 11.6668V36.6668L29.9997 30.0002H11.6663C10.7497 30.0002 9.99968 29.2502 9.99968 28.3335V25.0002H31.6663V10.0002Z" fill="#0165E1"/>
</svg>
