<svg width="21" height="22" viewBox="0 0 21 22" fill="none" xmlns="http://www.w3.org/2000/svg">
    <path d="M9.77121 2.74358C12.1127 0.399998 15.9117 0.399998 18.2548 2.74314C20.5379 5.02621 20.5964 8.69142 18.4304 11.0454L18.2423 11.2427L9.44224 20.0409L9.40567 20.0712C7.94443 21.3879 5.69043 21.3432 4.28306 19.9358C2.96404 18.6168 2.84193 16.5541 3.91671 15.0974C3.94005 15.0521 3.9683 15.0083 4.00152 14.9672L4.05507 14.9075L4.14198 14.8198L4.28306 14.6719L4.28598 14.6748L11.7217 7.22047C11.9876 6.95385 12.4043 6.92909 12.6982 7.14656L12.7824 7.21906C13.049 7.48497 13.0738 7.9016 12.8563 8.19551L12.7838 8.27972L5.18917 15.8928C4.47153 16.7684 4.52141 18.0627 5.33881 18.8801C6.16787 19.7091 7.48752 19.7486 8.36331 18.9985L17.196 10.1681C18.9515 8.41041 18.9515 5.56116 17.1941 3.8038C15.4917 2.10136 12.7646 2.04816 10.9981 3.6442L10.8302 3.8038L10.8176 3.81812L1.28131 13.3544C0.988413 13.6473 0.51354 13.6473 0.220646 13.3544C-0.0456202 13.0882 -0.0698261 12.6715 0.148028 12.3779L0.220646 12.2938L9.76952 2.74314L9.77121 2.74358Z" fill="#8A8A8A"/>
</svg>
