<svg width="24" height="24" viewBox="0 0 24 24" fill="none" xmlns="http://www.w3.org/2000/svg">
    <path d="M11.9996 1.99902C17.5233 1.99902 22.0011 6.47687 22.0011 12.0006C22.0011 17.5243 17.5233 22.0021 11.9996 22.0021C6.47589 22.0021 1.99805 17.5243 1.99805 12.0006C1.99805 6.47687 6.47589 1.99902 11.9996 1.99902ZM11.9996 3.49902C7.30432 3.49902 3.49805 7.3053 3.49805 12.0006C3.49805 16.6959 7.30432 20.5021 11.9996 20.5021C16.6949 20.5021 20.5011 16.6959 20.5011 12.0006C20.5011 7.3053 16.6949 3.49902 11.9996 3.49902ZM8.46134 14.7839C9.31047 15.8616 10.6015 16.5021 11.9996 16.5021C13.3958 16.5021 14.6853 15.8633 15.5345 14.7881C15.7913 14.463 16.2629 14.4076 16.588 14.6644C16.913 14.9211 16.9684 15.3927 16.7117 15.7178C15.5809 17.1495 13.8597 18.0021 11.9996 18.0021C10.1369 18.0021 8.41371 17.1472 7.28311 15.7122C7.02676 15.3869 7.08271 14.9153 7.40806 14.6589C7.73342 14.4026 8.20499 14.4585 8.46134 14.7839ZM9.00005 8.75121C9.69001 8.75121 10.2493 9.31054 10.2493 10.0005C10.2493 10.6905 9.69001 11.2498 9.00005 11.2498C8.31008 11.2498 7.75076 10.6905 7.75076 10.0005C7.75076 9.31054 8.31008 8.75121 9.00005 8.75121ZM15 8.75121C15.69 8.75121 16.2493 9.31054 16.2493 10.0005C16.2493 10.6905 15.69 11.2498 15 11.2498C14.3101 11.2498 13.7508 10.6905 13.7508 10.0005C13.7508 9.31054 14.3101 8.75121 15 8.75121Z" fill="#8A8A8A"/>
</svg>
