<svg width="34" height="33" viewBox="0 0 34 32" fill="none" xmlns="http://www.w3.org/2000/svg">
    <path fill-rule="evenodd" clip-rule="evenodd" d="M33.6497 11.8333C33.6497 10.6333 33.033 9.58329 32.083 8.99996L16.9997 0.166626L1.91634 8.99996C0.966341 9.58329 0.333008 10.6333 0.333008 11.8333V28.5C0.333008 30.3333 1.83301 31.8333 3.66634 31.8333H30.333C32.1663 31.8333 33.6663 30.3333 33.6663 28.5L33.6497 11.8333ZM30.3163 11.8333V11.85L16.9997 20.1666L3.66634 11.8333L16.9997 4.03329L30.3163 11.8333ZM3.66634 15.7333V28.5H30.333L30.3163 15.7833L16.9997 24.1L3.66634 15.7333Z" fill="#323232"/>
    <path d="M11.9463 17.7413C12.5629 17.1978 12.9556 16.3994 12.9556 15.5186C12.9556 14.4223 12.363 13.4667 11.4815 12.9556L11.4741 11.0741H23.3259V12.9556C22.4444 13.4667 21.8444 14.4297 21.8444 15.5186C21.8444 16.3994 22.2371 17.1978 22.8537 17.7413L24.2475 16.8896C23.7081 16.6676 23.3259 16.1355 23.3259 15.5186C23.3259 14.7038 23.9926 14.0371 24.8074 14.0371V11.0741C24.8074 10.2593 24.1407 9.59265 23.3259 9.59265H11.4741C10.6593 9.59265 10 10.2593 10 11.0741V14.0371C10.8148 14.0371 11.4741 14.7038 11.4741 15.5186C11.4741 16.1362 11.0952 16.6688 10.5538 16.8903L11.9463 17.7413Z" fill="#323232"/>
    <path d="M15.2296 18.4815L17.4 17.0889L19.5704 18.4815L18.9111 15.9927L20.9037 14.363L18.3333 14.2075L17.4 11.8149L16.4593 14.2001L13.8889 14.3556L15.8815 15.9852L15.2296 18.4815Z" fill="#323232"/>
    <path d="M11.9463 17.7413C12.5629 17.1978 12.9556 16.3994 12.9556 15.5186C12.9556 14.4223 12.363 13.4667 11.4815 12.9556L11.4741 11.0741H23.3259V12.9556C22.4444 13.4667 21.8444 14.4297 21.8444 15.5186C21.8444 16.3994 22.2371 17.1978 22.8537 17.7413L24.2475 16.8896C23.7081 16.6676 23.3259 16.1355 23.3259 15.5186C23.3259 14.7038 23.9926 14.0371 24.8074 14.0371V11.0741C24.8074 10.2593 24.1407 9.59265 23.3259 9.59265H11.4741C10.6593 9.59265 10 10.2593 10 11.0741V14.0371C10.8148 14.0371 11.4741 14.7038 11.4741 15.5186C11.4741 16.1362 11.0952 16.6688 10.5538 16.8903L11.9463 17.7413Z" stroke="#323232"/>
    <path d="M15.2296 18.4815L17.4 17.0889L19.5704 18.4815L18.9111 15.9927L20.9037 14.363L18.3333 14.2075L17.4 11.8149L16.4593 14.2001L13.8889 14.3556L15.8815 15.9852L15.2296 18.4815Z" stroke="#323232"/>
</svg>
