<svg width="40" height="40" viewBox="0 0 40 40" fill="none" xmlns="http://www.w3.org/2000/svg">
    <path opacity="0.2" d="M6 15L20 7L34 15V33H6V15Z" fill="#0165E1"/>
    <path fill-rule="evenodd" clip-rule="evenodd" d="M36.6497 15.8332C36.6497 14.6332 36.033 13.5832 35.083 12.9998L19.9997 4.1665L4.91634 12.9998C3.96634 13.5832 3.33301 14.6332 3.33301 15.8332V32.4998C3.33301 34.3332 4.83301 35.8332 6.66634 35.8332H33.333C35.1663 35.8332 36.6663 34.3332 36.6663 32.4998L36.6497 15.8332ZM33.3163 15.8332V15.8498L19.9997 24.1665L6.66634 15.8332L19.9997 8.03317L33.3163 15.8332ZM6.66634 19.7332V32.4998H33.333L33.3163 19.7832L19.9997 28.0998L6.66634 19.7332Z" fill="#0165E1"/>
    <path d="M14.5459 21.1487C15.1626 20.6052 15.5552 19.8067 15.5552 18.9259C15.5552 17.8296 14.9626 16.8741 14.0811 16.363L14.0737 14.4815H25.9255V16.363C25.0441 16.8741 24.4441 17.837 24.4441 18.9259C24.4441 19.8067 24.8367 20.6052 25.4533 21.1487L26.8471 20.2969C26.3078 20.0749 25.9255 19.5429 25.9255 18.9259C25.9255 18.1111 26.5922 17.4444 27.407 17.4444V14.4815C27.407 13.6667 26.7404 13 25.9255 13H14.0737C13.2589 13 12.5996 13.6667 12.5996 14.4815V17.4444C13.4144 17.4444 14.0737 18.1111 14.0737 18.9259C14.0737 19.5436 13.6949 20.0761 13.1534 20.2977L14.5459 21.1487Z" fill="#0165E1"/>
    <path d="M17.8292 21.8889L19.9996 20.4963L22.17 21.8889L21.5107 19.4L23.5033 17.7704L20.9329 17.6148L19.9996 15.2222L19.0589 17.6074L16.4885 17.763L18.4811 19.3926L17.8292 21.8889Z" fill="#0165E1"/>
    <path d="M14.5459 21.1487C15.1626 20.6052 15.5552 19.8067 15.5552 18.9259C15.5552 17.8296 14.9626 16.8741 14.0811 16.363L14.0737 14.4815H25.9255V16.363C25.0441 16.8741 24.4441 17.837 24.4441 18.9259C24.4441 19.8067 24.8367 20.6052 25.4533 21.1487L26.8471 20.2969C26.3078 20.0749 25.9255 19.5429 25.9255 18.9259C25.9255 18.1111 26.5922 17.4444 27.407 17.4444V14.4815C27.407 13.6667 26.7404 13 25.9255 13H14.0737C13.2589 13 12.5996 13.6667 12.5996 14.4815V17.4444C13.4144 17.4444 14.0737 18.1111 14.0737 18.9259C14.0737 19.5436 13.6949 20.0761 13.1534 20.2977L14.5459 21.1487Z" stroke="#0165E1"/>
    <path d="M17.8292 21.8889L19.9996 20.4963L22.17 21.8889L21.5107 19.4L23.5033 17.7704L20.9329 17.6148L19.9996 15.2222L19.0589 17.6074L16.4885 17.763L18.4811 19.3926L17.8292 21.8889Z" stroke="#0165E1"/>
</svg>
