<svg width="20" height="21" viewBox="0 0 20 21" fill="none" xmlns="http://www.w3.org/2000/svg">
    <path d="M13.3251 3.11785C12.3599 2.15257 10.7326 2.41665 10.1221 3.63764L8.39285 7.09609C8.22855 7.42468 7.94939 7.68155 7.60829 7.81799L4.01834 9.25397C3.35177 9.5206 3.17498 10.3819 3.68262 10.8896L6.29289 13.4998L3 16.7927V17.4998H3.70711L7 14.2069L9.61027 16.8172C10.1179 17.3248 10.9792 17.148 11.2459 16.4815L12.6818 12.8915C12.8183 12.5504 13.0751 12.2713 13.4037 12.107L16.8622 10.3777C18.0832 9.76725 18.3472 8.13996 17.382 7.17468L13.3251 3.11785Z" fill="#838383"/>
</svg>
