<svg width="36" height="33" viewBox="0 0 36 36" fill="none" xmlns="http://www.w3.org/2000/svg">
    <path d="M18 22.5C20.4853 22.5 22.5 20.4853 22.5 18C22.5 15.5147 20.4853 13.5 18 13.5C15.5147 13.5 13.5 15.5147 13.5 18C13.5 20.4853 15.5147 22.5 18 22.5Z" stroke="#323232" stroke-width="3" stroke-miterlimit="10" stroke-linecap="round" stroke-linejoin="round"/>
    <path d="M3 19.32V16.68C3 15.12 4.275 13.83 5.85 13.83C8.565 13.83 9.675 11.91 8.31 9.55503C7.53 8.20503 7.995 6.45003 9.36 5.67003L11.955 4.18503C13.14 3.48003 14.67 3.90003 15.375 5.08503L15.54 5.37003C16.89 7.72503 19.11 7.72503 20.475 5.37003L20.64 5.08503C21.345 3.90003 22.875 3.48003 24.06 4.18503L26.655 5.67003C28.02 6.45003 28.485 8.20503 27.705 9.55503C26.34 11.91 27.45 13.83 30.165 13.83C31.725 13.83 33.015 15.105 33.015 16.68V19.32C33.015 20.88 31.74 22.17 30.165 22.17C27.45 22.17 26.34 24.09 27.705 26.445C28.485 27.81 28.02 29.55 26.655 30.33L24.06 31.815C22.875 32.52 21.345 32.1 20.64 30.915L20.475 30.63C19.125 28.275 16.905 28.275 15.54 30.63L15.375 30.915C14.67 32.1 13.14 32.52 11.955 31.815L9.36 30.33C7.995 29.55 7.53 27.795 8.31 26.445C9.675 24.09 8.565 22.17 5.85 22.17C4.275 22.17 3 20.88 3 19.32Z" stroke="#323232" stroke-width="3" stroke-miterlimit="10" stroke-linecap="round" stroke-linejoin="round"/>
</svg>
