<svg width="38" height="33" viewBox="0 0 38 30" fill="none" xmlns="http://www.w3.org/2000/svg">
    <path fill-rule="evenodd" clip-rule="evenodd" d="M4.00033 0H34.0003C35.8503 0 37.3337 1.48333 37.3337 3.33333V26.6667C37.3337 28.5167 35.8503 30 34.0003 30H4.00033C2.15033 30 0.666992 28.5167 0.666992 26.6667V3.33333C0.666992 1.48333 2.15033 0 4.00033 0ZM4.00033 26.7H34.0003V3.3H4.00033V26.7Z" fill="#323232"/>
    <path d="M30.5435 10.8025C30.5435 11.9568 29.599 12.9013 28.4447 12.9013C28.2558 12.9013 28.0774 12.8803 27.9095 12.8278L24.1737 16.5531C24.2262 16.721 24.2472 16.9099 24.2472 17.0988C24.2472 18.2531 23.3027 19.1976 22.1484 19.1976C20.9941 19.1976 20.0496 18.2531 20.0496 17.0988C20.0496 16.9099 20.0706 16.721 20.1231 16.5531L17.4472 13.8772C17.2793 13.9297 17.0904 13.9506 16.9015 13.9506C16.7126 13.9506 16.5237 13.9297 16.3558 13.8772L11.5811 18.6624C11.6336 18.8303 11.6546 19.0087 11.6546 19.1976C11.6546 20.3519 10.7101 21.2963 9.5558 21.2963C8.40148 21.2963 7.45703 20.3519 7.45703 19.1976C7.45703 18.0432 8.40148 17.0988 9.5558 17.0988C9.74469 17.0988 9.92308 17.1198 10.091 17.1723L14.8762 12.3976C14.8237 12.2297 14.8027 12.0408 14.8027 11.8519C14.8027 10.6976 15.7472 9.75312 16.9015 9.75312C18.0558 9.75312 19.0002 10.6976 19.0002 11.8519C19.0002 12.0408 18.9793 12.2297 18.9268 12.3976L21.6027 15.0735C21.7706 15.021 21.9595 15 22.1484 15C22.3373 15 22.5262 15.021 22.6941 15.0735L26.4194 11.3377C26.3669 11.1698 26.3459 10.9914 26.3459 10.8025C26.3459 9.64818 27.2904 8.70374 28.4447 8.70374C29.599 8.70374 30.5435 9.64818 30.5435 10.8025Z" fill="#323232"/>
</svg>
