<svg width="218" height="33" viewBox="0 0 218 33" fill="none" xmlns="http://www.w3.org/2000/svg">
    <g opacity="0.8">
        <path d="M197.27 17C196.48 16.05 196 14.83 196 13.5C196 10.48 198.47 8 201.5 8H206.5C209.52 8 212 10.48 212 13.5C212 16.52 209.53 19 206.5 19H204" stroke="#323232" stroke-width="1.5" stroke-linecap="round" stroke-linejoin="round"/>
        <path d="M214.73 17C215.52 17.95 216 19.17 216 20.5C216 23.52 213.53 26 210.5 26H205.5C202.48 26 200 23.52 200 20.5C200 17.48 202.47 15 205.5 15H208" stroke="#323232" stroke-width="1.5" stroke-linecap="round" stroke-linejoin="round"/>
        <path d="M181.581 19.9993L179.219 22.3606C178.916 22.0573 178.729 21.642 178.729 21.18C178.729 20.256 179.476 19.5093 180.4 19.5093C180.862 19.5093 181.278 19.6959 181.581 19.9993Z" stroke="#323232" stroke-linecap="round" stroke-linejoin="round"/>
        <path d="M183.115 18.2728C182.299 17.6568 181.365 17.3208 180.399 17.3208C178.752 17.3208 177.217 18.2915 176.148 19.9715C175.728 20.6295 175.728 21.7355 176.148 22.3935C176.517 22.9722 176.946 23.4715 177.413 23.8729" stroke="#323232" stroke-linecap="round" stroke-linejoin="round"/>
        <path d="M178.729 24.6941C179.261 24.9181 179.826 25.0395 180.4 25.0395C182.048 25.0395 183.583 24.0688 184.652 22.3888C185.072 21.7308 185.072 20.6248 184.652 19.9668C184.498 19.7241 184.33 19.4954 184.157 19.2808" stroke="#323232" stroke-linecap="round" stroke-linejoin="round"/>
        <path d="M182.038 21.5068C181.916 22.1648 181.38 22.7015 180.722 22.8228" stroke="#323232" stroke-linecap="round" stroke-linejoin="round"/>
        <path d="M179.219 22.3608L175.733 25.8469" stroke="#323232" stroke-linecap="round" stroke-linejoin="round"/>
        <path d="M185.066 16.5132L181.58 19.9992" stroke="#323232" stroke-linecap="round" stroke-linejoin="round"/>
        <path d="M160.229 12.1417V10.4504C160.229 9.30803 161.158 8.37842 162.301 8.37842H176.771C177.913 8.37842 178.843 9.30803 178.843 10.4504V12.1417" stroke="#323232" stroke-width="1.5" stroke-linecap="round" stroke-linejoin="round"/>
        <path d="M169.536 25.772V9.21826" stroke="#323232" stroke-width="1.5" stroke-linecap="round" stroke-linejoin="round"/>
        <path d="M165.729 25.772H171.978" stroke="#323232" stroke-width="1.5" stroke-linecap="round" stroke-linejoin="round"/>
        <path d="M128.67 12.1698V10.3498C128.67 9.19979 129.6 8.27979 130.74 8.27979H145.26C146.41 8.27979 147.33 9.20979 147.33 10.3498V12.1698" stroke="#DF3031" stroke-width="1.5" stroke-linecap="round" stroke-linejoin="round"/>
        <path d="M138 25.7199V9.10986" stroke="#DF3031" stroke-width="1.5" stroke-linecap="round" stroke-linejoin="round"/>
        <path d="M134.06 25.7202H141.94" stroke="#DF3031" stroke-width="1.5" stroke-linecap="round" stroke-linejoin="round"/>
        <path d="M112.839 11.451L111.474 11.8132C111.257 11.1371 110.947 10.5535 110.545 10.0625C110.142 9.5715 109.635 9.19318 109.023 8.92756C108.42 8.65388 107.695 8.51704 106.85 8.51704C105.49 8.51704 104.375 8.85511 103.506 9.53125C102.644 10.2074 102.214 11.0888 102.214 12.1754C102.214 13.0608 102.508 13.7933 103.095 14.3729C103.683 14.9444 104.58 15.379 105.788 15.6768L108.637 16.3892C110.102 16.7514 111.205 17.339 111.945 18.152C112.686 18.9569 113.056 19.959 113.056 21.1584C113.056 22.1806 112.778 23.0862 112.223 23.875C111.668 24.6638 110.899 25.2796 109.917 25.7223C108.943 26.165 107.808 26.3864 106.512 26.3864C104.781 26.3864 103.361 25.9839 102.25 25.179C101.139 24.366 100.427 23.2029 100.113 21.6896L101.526 21.3274C101.791 22.5348 102.343 23.4564 103.18 24.0923C104.025 24.7202 105.132 25.0341 106.5 25.0341C108.013 25.0341 109.233 24.6759 110.158 23.9595C111.092 23.2431 111.559 22.3255 111.559 21.2067C111.559 20.3535 111.285 19.633 110.738 19.0455C110.191 18.4579 109.362 18.0272 108.251 17.7536L105.293 17.0291C103.779 16.6589 102.644 16.0672 101.888 15.2543C101.131 14.4332 100.753 13.4231 100.753 12.2237C100.753 11.2256 101.014 10.3482 101.538 9.59162C102.061 8.83499 102.781 8.24337 103.699 7.81676C104.616 7.39015 105.667 7.17685 106.85 7.17685C108.42 7.17685 109.7 7.54711 110.69 8.28764C111.68 9.02817 112.396 10.0826 112.839 11.451Z" fill="#323232"/>
        <path d="M100 17H114" stroke="#323232" stroke-width="1.5" stroke-linecap="round" stroke-linejoin="round"/>
        <path d="M69 26H83" stroke="#323232" stroke-width="1.5" stroke-linecap="round" stroke-linejoin="round"/>
        <path d="M69 8V15C69 18.87 72.13 22 76 22C79.87 22 83 18.87 83 15V8" stroke="#323232" stroke-width="1.5" stroke-linecap="round" stroke-linejoin="round"/>
        <path d="M41.6201 8H50.8701" stroke="#323232" stroke-width="1.5" stroke-linecap="round" stroke-linejoin="round"/>
        <path d="M37.1201 26H46.3701" stroke="#323232" stroke-width="1.5" stroke-linecap="round" stroke-linejoin="round"/>
        <path d="M46.25 8L41.75 26" stroke="#323232" stroke-width="1.5" stroke-linecap="round" stroke-linejoin="round"/>
        <path d="M4.87988 9.5C4.87988 8.4 5.77988 7.5 6.87988 7.5H11.9999C14.6199 7.5 16.7499 9.63 16.7499 12.25C16.7499 14.87 14.6199 17 11.9999 17H4.87988V9.5Z" stroke="#323232" stroke-width="2" stroke-linecap="round" stroke-linejoin="round"/>
        <path d="M4.87988 17H14.3799C16.9999 17 19.1299 19.13 19.1299 21.75C19.1299 24.37 16.9999 26.5 14.3799 26.5H6.87988C5.77988 26.5 4.87988 25.6 4.87988 24.5V17V17Z" stroke="#323232" stroke-width="2" stroke-linecap="round" stroke-linejoin="round"/>
    </g>
</svg>
